<svg width="35" height="35" viewBox="0 0 35 35" fill="none" xmlns="http://www.w3.org/2000/svg">
<path d="M35 0H0V35H35V0Z" fill="url(#paint0_radial_246_518)"/>
<path d="M14.2906 17.4995C14.2906 15.727 15.7271 14.2898 17.4996 14.2898C19.2721 14.2898 20.7094 15.727 20.7094 17.4995C20.7094 19.272 19.2721 20.7093 17.4996 20.7093C15.7271 20.7093 14.2906 19.272 14.2906 17.4995ZM12.5555 17.4995C12.5555 20.2302 14.769 22.4437 17.4996 22.4437C20.2302 22.4437 22.4437 20.2302 22.4437 17.4995C22.4437 14.7689 20.2302 12.5554 17.4996 12.5554C14.769 12.5554 12.5555 14.7688 12.5555 17.4995H12.5555ZM21.4841 12.3594C21.484 12.5879 21.5517 12.8113 21.6785 13.0014C21.8054 13.1915 21.9858 13.3396 22.1969 13.4271C22.408 13.5147 22.6403 13.5376 22.8645 13.4932C23.0886 13.4487 23.2945 13.3387 23.4562 13.1772C23.6178 13.0157 23.7279 12.8099 23.7726 12.5857C23.8173 12.3616 23.7945 12.1293 23.7072 11.9181C23.6198 11.707 23.4717 11.5265 23.2818 11.3995C23.0918 11.2724 22.8685 11.2045 22.64 11.2044H22.6395C22.3332 11.2046 22.0395 11.3263 21.8228 11.5429C21.6062 11.7594 21.4843 12.0531 21.4841 12.3594ZM13.6097 25.337C12.6709 25.2942 12.1607 25.1378 11.8216 25.0058C11.3721 24.8308 11.0514 24.6223 10.7141 24.2855C10.3769 23.9488 10.1682 23.6284 9.99395 23.1788C9.86177 22.8399 9.7054 22.3295 9.66268 21.3908C9.61605 20.3758 9.60668 20.071 9.60668 17.4997C9.60668 14.9284 9.61682 14.6244 9.66268 13.6086C9.70545 12.6699 9.86295 12.1605 9.99395 11.8206C10.1689 11.371 10.3774 11.0503 10.7141 10.7131C11.0509 10.3759 11.3714 10.1671 11.8216 9.99287C12.1606 9.86069 12.6709 9.70432 13.6097 9.66165C14.6246 9.61497 14.9295 9.60565 17.4996 9.60565C20.0697 9.60565 20.3749 9.61559 21.3907 9.66181C22.3294 9.70458 22.8387 9.86208 23.1787 9.99302C23.6282 10.1673 23.949 10.3765 24.2862 10.7132C24.6234 11.05 24.8314 11.3712 25.0064 11.8207C25.1386 12.1597 25.295 12.6701 25.3376 13.6088C25.3843 14.6245 25.3936 14.9286 25.3936 17.4999C25.3936 20.0711 25.3843 20.3752 25.3376 21.3909C25.2949 22.3296 25.1377 22.8399 25.0064 23.179C24.8314 23.6285 24.623 23.9492 24.2862 24.2857C23.9494 24.6221 23.6282 24.8309 23.1787 25.0059C22.8398 25.1381 22.3294 25.2945 21.3907 25.3371C20.3757 25.3838 20.0709 25.3931 17.4996 25.3931C14.9283 25.3931 14.6243 25.3838 13.6097 25.3371V25.337ZM13.53 7.92941C12.5049 7.97604 11.8045 8.13859 11.1929 8.37659C10.5598 8.62241 10.0231 8.95218 9.48722 9.48722C8.95136 10.0223 8.62246 10.5589 8.37664 11.1928C8.13864 11.8049 7.97609 12.5049 7.92941 13.5299C7.88195 14.5566 7.87109 14.8848 7.87109 17.4995C7.87109 20.1144 7.88195 20.4425 7.92941 21.4692C7.97609 22.4942 8.13864 23.1942 8.37664 23.8063C8.62246 24.4394 8.95141 24.9771 9.48722 25.5119C10.023 26.0467 10.559 26.376 11.1929 26.6225C11.8057 26.8605 12.5049 27.023 13.53 27.0697C14.5571 27.1164 14.8848 27.128 17.4996 27.128C20.1144 27.128 20.4426 27.1171 21.4692 27.0697C22.4943 27.023 23.1942 26.8605 23.8063 26.6225C24.4394 26.376 24.9761 26.0469 25.5119 25.5119C26.0478 24.9769 26.3761 24.4394 26.6225 23.8063C26.8606 23.1942 27.0238 22.4942 27.0697 21.4692C27.1164 20.4418 27.1273 20.1144 27.1273 17.4995C27.1273 14.8848 27.1164 14.5566 27.0697 13.5299C27.023 12.5048 26.8606 11.8045 26.6225 11.1928C26.3761 10.5597 26.047 10.0231 25.5119 9.48722C24.9769 8.95131 24.4394 8.62241 23.8071 8.37659C23.1942 8.13859 22.4942 7.97532 21.47 7.92941C20.4432 7.88247 20.1151 7.87109 17.5007 7.87109C14.8863 7.87109 14.5575 7.88195 13.5303 7.92941" fill="white"/>
<defs>
<radialGradient id="paint0_radial_246_518" cx="0" cy="0" r="1" gradientUnits="userSpaceOnUse" gradientTransform="translate(2.26516 34.2332) scale(44.437)">
<stop offset="0.09" stop-color="#FF881B"/>
<stop offset="0.78" stop-color="#EE2584"/>
</radialGradient>
</defs>
</svg>
