<svg width="35" height="35" viewBox="0 0 35 35" fill="none" xmlns="http://www.w3.org/2000/svg">
<path d="M0 0H35V35H0V0Z" fill="#018AD2"/>
<path d="M9.19922 11.4314C9.19922 10.899 9.38621 10.4598 9.76009 10.1138C10.134 9.76777 10.6201 9.59473 11.2183 9.59473C11.8059 9.59473 12.2813 9.76509 12.6445 10.1058C13.0184 10.4572 13.2053 10.9149 13.2053 11.4793C13.2053 11.9903 13.0237 12.4162 12.6605 12.7569C12.2866 13.1082 11.7952 13.2839 11.1863 13.2839H11.1702C10.5827 13.2839 10.1073 13.1082 9.74409 12.7569C9.38086 12.4055 9.19922 11.9637 9.19922 11.4314ZM9.40757 25.4055V14.7372H12.965V25.4055H9.40757ZM14.936 25.4055H18.4934V19.4485C18.4934 19.0759 18.5361 18.7884 18.6216 18.5861C18.7712 18.2241 18.9981 17.918 19.3026 17.6678C19.6071 17.4176 19.989 17.2925 20.4484 17.2925C21.6449 17.2925 22.2431 18.0963 22.2431 19.704V25.4055H25.8005V19.2888C25.8005 17.713 25.4266 16.5179 24.6788 15.7034C23.931 14.8889 22.9428 14.4817 21.7143 14.4817C20.3362 14.4817 19.2625 15.0726 18.4934 16.2544V16.2864H18.4774L18.4934 16.2544V14.7372H14.936C14.9573 15.0779 14.968 16.1373 14.968 17.9154C14.968 19.6934 14.9573 22.1901 14.936 25.4055Z" fill="white"/>
</svg>
