<svg xmlns="http://www.w3.org/2000/svg" xmlns:xlink="http://www.w3.org/1999/xlink" width="40" zoomAndPan="magnify" viewBox="0 0 30 30.000001" height="40" preserveAspectRatio="xMidYMid meet" version="1.0"><defs><g/><clipPath id="id1"><path d="M 0.484375 18 L 29.515625 18 L 29.515625 29.03125 L 0.484375 29.03125 Z M 0.484375 18 " clip-rule="nonzero"/></clipPath><clipPath id="id2"><path d="M 0.484375 4 L 17 4 L 17 24 L 0.484375 24 Z M 0.484375 4 " clip-rule="nonzero"/></clipPath><clipPath id="id3"><path d="M 24.988281 22.699219 L 26.441406 22.699219 L 26.441406 24.152344 L 24.988281 24.152344 Z M 24.988281 22.699219 " clip-rule="nonzero"/></clipPath><clipPath id="id4"><path d="M 22.199219 23.289062 L 23.648438 23.289062 L 23.648438 24.738281 L 22.199219 24.738281 Z M 22.199219 23.289062 " clip-rule="nonzero"/></clipPath><clipPath id="id5"><path d="M 19.007812 23.984375 L 20.460938 23.984375 L 20.460938 25.433594 L 19.007812 25.433594 Z M 19.007812 23.984375 " clip-rule="nonzero"/></clipPath></defs><g clip-path="url(#id1)"><path stroke-linecap="butt" transform="matrix(0.726139, -0.0870265, 0.0863686, 0.720649, 4.436706, 25.180655)" fill="none" stroke-linejoin="miter" d="M 0.00123574 -0.00119344 L 30.776812 0.00228954 " stroke="#5d5fef" stroke-width="1" stroke-opacity="1" stroke-miterlimit="4"/></g><g clip-path="url(#id2)"><g fill="#5d5fef" fill-opacity="1"><g transform="translate(4.203396, 19.619955)"><g><path d="M 11.546875 -3.484375 C 11.578125 -3.472656 11.601562 -3.457031 11.625 -3.4375 C 11.644531 -3.425781 11.65625 -3.40625 11.65625 -3.375 C 11.65625 -3.34375 11.640625 -3.3125 11.609375 -3.28125 C 11.609375 -3.28125 11.601562 -3.269531 11.59375 -3.25 C 11.59375 -3.25 11.585938 -3.242188 11.578125 -3.234375 C 11.566406 -3.234375 11.554688 -3.234375 11.546875 -3.234375 C 11.359375 -3.234375 11.242188 -3.175781 11.203125 -3.0625 C 11.160156 -2.945312 11.144531 -2.800781 11.15625 -2.625 C 11.207031 -1.414062 11.242188 -0.21875 11.265625 0.96875 C 11.265625 1.226562 11.269531 1.488281 11.28125 1.75 C 11.28125 1.90625 11.269531 2.046875 11.25 2.171875 C 11.226562 2.285156 11.160156 2.351562 11.046875 2.375 C 11.015625 2.375 10.984375 2.367188 10.953125 2.359375 C 10.929688 2.359375 10.914062 2.34375 10.90625 2.3125 C 10.78125 2.113281 10.695312 1.160156 10.65625 -0.546875 C 10.601562 -2.054688 10.488281 -2.851562 10.3125 -2.9375 C 10.175781 -3.007812 9.890625 -3.015625 9.453125 -2.953125 L 1.96875 -1.78125 C 1.925781 -1.78125 1.878906 -1.773438 1.828125 -1.765625 C 1.816406 -1.765625 1.8125 -1.765625 1.8125 -1.765625 C 1.644531 -1.765625 1.453125 -1.125 1.234375 0.15625 C 1.015625 1.4375 0.878906 2.363281 0.828125 2.9375 C 0.773438 3.507812 0.644531 3.835938 0.4375 3.921875 C 0.414062 3.941406 0.390625 3.953125 0.359375 3.953125 C 0.328125 3.960938 0.289062 3.960938 0.25 3.953125 C 0.207031 3.941406 0.175781 3.921875 0.15625 3.890625 C 0.132812 3.859375 0.125 3.828125 0.125 3.796875 C 0.125 3.773438 0.125 3.753906 0.125 3.734375 C 0.113281 3.546875 0.117188 3.359375 0.140625 3.171875 C 0.273438 1.785156 0.515625 0.421875 0.859375 -0.921875 C 0.859375 -0.960938 0.867188 -1.007812 0.890625 -1.0625 C 0.921875 -1.175781 0.945312 -1.296875 0.96875 -1.421875 C 0.988281 -1.554688 0.925781 -1.613281 0.78125 -1.59375 C 0.5 -1.5625 0.222656 -1.519531 -0.046875 -1.46875 C -0.0664062 -1.46875 -0.0859375 -1.460938 -0.109375 -1.453125 C -0.316406 -1.421875 -0.519531 -1.390625 -0.71875 -1.359375 C -1.125 -1.296875 -1.523438 -1.234375 -1.921875 -1.171875 C -1.921875 -1.171875 -1.925781 -1.171875 -1.9375 -1.171875 C -2.175781 -1.117188 -2.410156 -1.113281 -2.640625 -1.15625 C -2.671875 -1.144531 -2.695312 -1.144531 -2.71875 -1.15625 C -2.738281 -1.175781 -2.753906 -1.203125 -2.765625 -1.234375 C -2.765625 -1.285156 -2.742188 -1.328125 -2.703125 -1.359375 C -2.679688 -1.398438 -2.644531 -1.425781 -2.59375 -1.4375 C -2.550781 -1.445312 -2.507812 -1.457031 -2.46875 -1.46875 C -2.445312 -1.46875 -2.429688 -1.46875 -2.421875 -1.46875 C -2.066406 -1.53125 -1.703125 -1.585938 -1.328125 -1.640625 C -0.648438 -1.753906 0.0351562 -1.859375 0.734375 -1.953125 C 1.015625 -1.992188 1.191406 -2.144531 1.265625 -2.40625 C 1.859375 -4.601562 2.597656 -6.738281 3.484375 -8.8125 C 3.773438 -9.5 4.09375 -10.171875 4.4375 -10.828125 C 4.78125 -11.492188 5.15625 -12.132812 5.5625 -12.75 C 5.90625 -13.28125 6.304688 -13.78125 6.765625 -14.25 C 7.003906 -14.5 7.289062 -14.707031 7.625 -14.875 C 7.789062 -14.957031 7.972656 -15.003906 8.171875 -15.015625 C 8.515625 -15.054688 8.828125 -14.941406 9.109375 -14.671875 C 9.347656 -14.441406 9.53125 -14.1875 9.65625 -13.90625 C 9.90625 -13.363281 10.097656 -12.816406 10.234375 -12.265625 C 10.429688 -11.390625 10.578125 -10.503906 10.671875 -9.609375 C 10.765625 -8.691406 10.84375 -7.769531 10.90625 -6.84375 C 10.976562 -5.925781 11.046875 -5.007812 11.109375 -4.09375 C 11.109375 -4.082031 11.113281 -4.066406 11.125 -4.046875 C 11.125 -4.003906 11.117188 -3.960938 11.109375 -3.921875 C 11.109375 -3.785156 11.128906 -3.65625 11.171875 -3.53125 C 11.203125 -3.507812 11.238281 -3.492188 11.28125 -3.484375 C 11.320312 -3.484375 11.363281 -3.488281 11.40625 -3.5 C 11.457031 -3.5 11.503906 -3.492188 11.546875 -3.484375 Z M 10.359375 -4.875 C 10.359375 -5.039062 10.347656 -5.207031 10.328125 -5.375 C 10.265625 -6.207031 10.191406 -7.035156 10.109375 -7.859375 C 10.023438 -8.691406 9.925781 -9.53125 9.8125 -10.375 C 9.695312 -11.1875 9.53125 -11.988281 9.3125 -12.78125 C 9.21875 -13.15625 9.070312 -13.523438 8.875 -13.890625 C 8.769531 -14.078125 8.640625 -14.25 8.484375 -14.40625 C 8.253906 -14.613281 8.015625 -14.65625 7.765625 -14.53125 C 7.554688 -14.4375 7.375 -14.3125 7.21875 -14.15625 C 6.925781 -13.851562 6.660156 -13.519531 6.421875 -13.15625 C 6.035156 -12.632812 5.691406 -12.085938 5.390625 -11.515625 C 5.085938 -10.953125 4.804688 -10.367188 4.546875 -9.765625 C 4.035156 -8.617188 3.578125 -7.457031 3.171875 -6.28125 C 2.765625 -5.101562 2.398438 -3.898438 2.078125 -2.671875 C 2.066406 -2.648438 2.054688 -2.628906 2.046875 -2.609375 C 2.023438 -2.566406 2.015625 -2.507812 2.015625 -2.4375 C 2.023438 -2.363281 2.078125 -2.328125 2.171875 -2.328125 C 7.066406 -3.015625 9.734375 -3.382812 10.171875 -3.4375 C 10.296875 -3.445312 10.375 -3.472656 10.40625 -3.515625 C 10.445312 -3.554688 10.460938 -3.644531 10.453125 -3.78125 C 10.429688 -4.070312 10.40625 -4.367188 10.375 -4.671875 C 10.363281 -4.742188 10.359375 -4.8125 10.359375 -4.875 Z M 10.359375 -4.875 "/></g></g></g></g><g fill="#5d5fef" fill-opacity="1"><g transform="translate(16.384384, 18.612066)"><g><path d="M 7.53125 -17.25 C 8.1875 -16.988281 8.734375 -16.625 9.171875 -16.15625 C 9.609375 -15.695312 9.929688 -15.15625 10.140625 -14.53125 C 10.179688 -14.382812 10.207031 -14.238281 10.21875 -14.09375 C 10.226562 -14.050781 10.234375 -14.015625 10.234375 -13.984375 C 10.242188 -13.867188 10.1875 -13.785156 10.0625 -13.734375 C 10 -13.691406 9.941406 -13.675781 9.890625 -13.6875 C 9.835938 -13.707031 9.800781 -13.738281 9.78125 -13.78125 C 9.738281 -13.882812 9.703125 -13.992188 9.671875 -14.109375 C 9.660156 -14.140625 9.65625 -14.164062 9.65625 -14.1875 C 9.375 -15.007812 8.878906 -15.691406 8.171875 -16.234375 C 7.234375 -16.953125 6.164062 -17.175781 4.96875 -16.90625 C 3.925781 -16.664062 2.992188 -16.226562 2.171875 -15.59375 C 1.066406 -14.757812 0.175781 -13.753906 -0.5 -12.578125 C -0.71875 -12.222656 -0.890625 -11.863281 -1.015625 -11.5 C -1.460938 -10.269531 -1.394531 -9.078125 -0.8125 -7.921875 C -0.625 -7.535156 -0.398438 -7.179688 -0.140625 -6.859375 C 0.109375 -6.546875 0.375 -6.238281 0.65625 -5.9375 C 1.300781 -5.257812 1.984375 -4.617188 2.703125 -4.015625 C 3.085938 -3.691406 3.472656 -3.378906 3.859375 -3.078125 C 4.410156 -2.628906 4.960938 -2.175781 5.515625 -1.71875 C 6.203125 -1.15625 6.832031 -0.539062 7.40625 0.125 C 7.59375 0.332031 7.757812 0.550781 7.90625 0.78125 C 8.0625 1.019531 8.191406 1.265625 8.296875 1.515625 C 8.578125 2.210938 8.390625 2.789062 7.734375 3.25 C 7.398438 3.5 7.035156 3.664062 6.640625 3.75 C 4.773438 4.050781 3.238281 3.539062 2.03125 2.21875 C 1.71875 1.894531 1.503906 1.53125 1.390625 1.125 C 1.285156 0.71875 1.253906 0.289062 1.296875 -0.15625 C 1.390625 -1.144531 1.734375 -2.054688 2.328125 -2.890625 C 2.390625 -2.960938 2.453125 -3.039062 2.515625 -3.125 C 2.523438 -3.164062 2.546875 -3.203125 2.578125 -3.234375 C 2.492188 -3.335938 2.40625 -3.429688 2.3125 -3.515625 C 2.269531 -3.535156 2.238281 -3.554688 2.21875 -3.578125 C 1.46875 -4.222656 0.75 -4.90625 0.0625 -5.625 C -0.40625 -6.101562 -0.8125 -6.625 -1.15625 -7.1875 C -2.050781 -8.65625 -2.164062 -10.175781 -1.5 -11.75 C -1.113281 -12.582031 -0.628906 -13.34375 -0.046875 -14.03125 C 0.523438 -14.71875 1.1875 -15.34375 1.9375 -15.90625 C 2.675781 -16.445312 3.5 -16.867188 4.40625 -17.171875 C 4.769531 -17.296875 5.144531 -17.382812 5.53125 -17.4375 C 5.914062 -17.488281 6.300781 -17.492188 6.6875 -17.453125 C 6.976562 -17.421875 7.257812 -17.351562 7.53125 -17.25 Z M 2.796875 -2.890625 C 2.753906 -2.847656 2.71875 -2.789062 2.6875 -2.71875 C 2.414062 -2.3125 2.222656 -1.878906 2.109375 -1.421875 C 1.992188 -0.972656 1.929688 -0.507812 1.921875 -0.03125 C 1.878906 0.9375 2.253906 1.722656 3.046875 2.328125 C 3.796875 2.921875 4.671875 3.265625 5.671875 3.359375 C 6.140625 3.398438 6.59375 3.34375 7.03125 3.1875 C 7.6875 2.957031 7.910156 2.523438 7.703125 1.890625 C 7.609375 1.597656 7.460938 1.316406 7.265625 1.046875 C 6.972656 0.628906 6.644531 0.242188 6.28125 -0.109375 C 5.832031 -0.566406 5.363281 -1.003906 4.875 -1.421875 C 4.382812 -1.835938 3.890625 -2.242188 3.390625 -2.640625 C 3.265625 -2.722656 3.148438 -2.804688 3.046875 -2.890625 C 3.015625 -2.921875 2.984375 -2.941406 2.953125 -2.953125 C 2.929688 -2.960938 2.914062 -2.972656 2.90625 -2.984375 C 2.882812 -2.960938 2.867188 -2.945312 2.859375 -2.9375 C 2.835938 -2.925781 2.816406 -2.910156 2.796875 -2.890625 Z M 2.796875 -2.890625 "/></g></g></g><g clip-path="url(#id3)"><path fill="#5d5fef" d="M 25.714844 22.699219 C 25.316406 22.699219 24.988281 23.023438 24.988281 23.425781 C 24.988281 23.828125 25.316406 24.152344 25.714844 24.152344 C 26.117188 24.152344 26.441406 23.828125 26.441406 23.425781 C 26.441406 23.023438 26.117188 22.699219 25.714844 22.699219 " fill-opacity="1" fill-rule="nonzero"/></g><g clip-path="url(#id4)"><path fill="#5d5fef" d="M 22.925781 23.289062 C 22.523438 23.289062 22.199219 23.613281 22.199219 24.015625 C 22.199219 24.414062 22.523438 24.738281 22.925781 24.738281 C 23.324219 24.738281 23.648438 24.414062 23.648438 24.015625 C 23.648438 23.613281 23.324219 23.289062 22.925781 23.289062 " fill-opacity="1" fill-rule="nonzero"/></g><g clip-path="url(#id5)"><path fill="#5d5fef" d="M 19.734375 23.984375 C 19.332031 23.984375 19.007812 24.308594 19.007812 24.710938 C 19.007812 25.109375 19.332031 25.433594 19.734375 25.433594 C 20.132812 25.433594 20.460938 25.109375 20.460938 24.710938 C 20.460938 24.308594 20.132812 23.984375 19.734375 23.984375 " fill-opacity="1" fill-rule="nonzero"/></g></svg>