<svg xmlns="http://www.w3.org/2000/svg" xmlns:xlink="http://www.w3.org/1999/xlink" width="1200" zoomAndPan="magnify" viewBox="0 0 900 899.99999" height="1200" preserveAspectRatio="xMidYMid meet" version="1.0"><defs><g/><clipPath id="id1"><path d="M 759.6875 703.710938 L 809.9375 703.710938 L 809.9375 753.960938 L 759.6875 753.960938 Z M 759.6875 703.710938 " clip-rule="nonzero"/></clipPath><clipPath id="id2"><path d="M 673.15625 721.929688 L 723.40625 721.929688 L 723.40625 772.179688 L 673.15625 772.179688 Z M 673.15625 721.929688 " clip-rule="nonzero"/></clipPath><clipPath id="id3"><path d="M 574.242188 743.484375 L 624.492188 743.484375 L 624.492188 793.734375 L 574.242188 793.734375 Z M 574.242188 743.484375 " clip-rule="nonzero"/></clipPath></defs><path stroke-linecap="butt" transform="matrix(22.333701, -2.676655, 2.677425, 22.34013, 121.722896, 773.912211)" fill="none" stroke-linejoin="miter" d="M -0.0000203765 0.0000804141 L 30.775897 -0.0000269316 " stroke="#5d5fef" stroke-width="1" stroke-opacity="1" stroke-miterlimit="4"/><g fill="#5d5fef" fill-opacity="1"><g transform="translate(115.304576, 608.224861)"><g><path d="M 358.28125 -108.1875 C 359.257812 -107.925781 360.113281 -107.546875 360.84375 -107.046875 C 361.570312 -106.546875 361.847656 -105.816406 361.671875 -104.859375 C 361.398438 -103.878906 360.921875 -102.882812 360.234375 -101.875 C 360.078125 -101.695312 359.890625 -101.378906 359.671875 -100.921875 C 359.597656 -100.753906 359.410156 -100.613281 359.109375 -100.5 C 358.816406 -100.382812 358.582031 -100.320312 358.40625 -100.3125 C 352.394531 -99.988281 348.710938 -98.0625 347.359375 -94.53125 C 346.003906 -91 345.421875 -86.566406 345.609375 -81.234375 C 347.046875 -44.097656 348.210938 -7.03125 349.109375 29.96875 C 349.265625 38.15625 349.472656 46.390625 349.734375 54.671875 C 349.835938 59.066406 349.539062 63.367188 348.84375 67.578125 C 348.257812 71.078125 346.09375 73.078125 342.34375 73.578125 C 341.570312 73.640625 340.785156 73.570312 339.984375 73.375 C 339.191406 73.175781 338.503906 72.582031 337.921875 71.59375 C 334.296875 65.5 331.675781 35.988281 330.0625 -16.9375 C 328.625 -63.570312 325.101562 -88.34375 319.5 -91.25 C 315.707031 -93.257812 306.894531 -93.21875 293.0625 -91.125 L 60.375 -55.171875 C 59.09375 -54.960938 57.679688 -54.796875 56.140625 -54.671875 C 55.972656 -54.660156 55.800781 -54.644531 55.625 -54.625 C 50.707031 -54.476562 44.9375 -34.644531 38.3125 4.875 C 31.695312 44.40625 27.546875 73.09375 25.859375 90.9375 C 24.179688 108.78125 20.132812 119.09375 13.71875 121.875 C 12.8125 122.289062 11.890625 122.644531 10.953125 122.9375 C 10.023438 123.238281 8.988281 123.21875 7.84375 122.875 C 6.507812 122.476562 5.5625 121.78125 5 120.78125 C 4.4375 119.789062 4.117188 118.820312 4.046875 117.875 C 3.992188 117.28125 3.941406 116.6875 3.890625 116.09375 C 3.578125 110.070312 3.691406 104.097656 4.234375 98.171875 C 8.535156 55.203125 15.890625 13.023438 26.296875 -28.359375 C 26.628906 -29.679688 26.984375 -31.132812 27.359375 -32.71875 C 28.273438 -36.34375 29.054688 -39.992188 29.703125 -43.671875 C 30.460938 -47.972656 28.617188 -49.859375 24.171875 -49.328125 C 15.460938 -48.171875 6.890625 -46.894531 -1.546875 -45.5 C -2.054688 -45.375 -2.613281 -45.242188 -3.21875 -45.109375 C -9.613281 -44.140625 -16.097656 -43.125 -22.671875 -42.0625 C -34.859375 -40.03125 -47.054688 -38.113281 -59.265625 -36.3125 C -59.441406 -36.300781 -59.613281 -36.285156 -59.78125 -36.265625 C -67.070312 -34.710938 -74.566406 -34.398438 -82.265625 -35.328125 C -83.035156 -35.441406 -83.804688 -35.703125 -84.578125 -36.109375 C -85.347656 -36.515625 -85.734375 -37.195312 -85.734375 -38.15625 C -85.785156 -39.875 -85.289062 -41.25 -84.25 -42.28125 C -83.226562 -43.320312 -82.0625 -44.023438 -80.75 -44.390625 C -79.4375 -44.753906 -78.09375 -44.992188 -76.71875 -45.109375 C -76.195312 -45.148438 -75.722656 -45.191406 -75.296875 -45.234375 C -64.046875 -47.109375 -52.707031 -48.953125 -41.28125 -50.765625 C -20.125 -54.160156 1.175781 -57.347656 22.625 -60.328125 C 31.238281 -61.566406 36.675781 -66.289062 38.9375 -74.5 C 57.582031 -142.6875 80.648438 -209.066406 108.140625 -273.640625 C 117.117188 -294.785156 126.9375 -315.601562 137.59375 -336.09375 C 148.25 -356.59375 159.878906 -376.3125 172.484375 -395.25 C 183.554688 -411.894531 196.023438 -427.359375 209.890625 -441.640625 C 217.535156 -449.441406 226.375 -455.921875 236.40625 -461.078125 C 241.539062 -463.660156 247.101562 -465.285156 253.09375 -465.953125 C 264.0625 -467.117188 273.828125 -463.519531 282.390625 -455.15625 C 289.546875 -448.050781 295.21875 -440.09375 299.40625 -431.28125 C 307.257812 -414.65625 313.164062 -397.5625 317.125 -380 C 323.257812 -352.9375 327.847656 -325.660156 330.890625 -298.171875 C 334.023438 -269.734375 336.617188 -241.253906 338.671875 -212.734375 C 340.734375 -184.210938 342.679688 -155.769531 344.515625 -127.40625 C 344.566406 -126.8125 344.570312 -126.210938 344.53125 -125.609375 C 344.5625 -124.304688 344.582031 -123.007812 344.59375 -121.71875 C 344.59375 -117.488281 345.140625 -113.515625 346.234375 -109.796875 C 347.597656 -108.960938 348.90625 -108.507812 350.15625 -108.4375 C 351.414062 -108.375 352.601562 -108.429688 353.71875 -108.609375 C 355.25 -108.816406 356.769531 -108.675781 358.28125 -108.1875 Z M 321.15625 -151.15625 C 320.914062 -156.21875 320.582031 -161.285156 320.15625 -166.359375 C 318.007812 -192.273438 315.710938 -218.203125 313.265625 -244.140625 C 310.816406 -270.085938 307.785156 -296.003906 304.171875 -321.890625 C 300.722656 -346.921875 295.597656 -371.816406 288.796875 -396.578125 C 285.585938 -408.242188 281.054688 -419.625 275.203125 -430.71875 C 272.035156 -436.757812 267.925781 -442.078125 262.875 -446.671875 C 255.945312 -453.085938 248.566406 -454.503906 240.734375 -450.921875 C 234.328125 -447.984375 228.695312 -443.972656 223.84375 -438.890625 C 214.851562 -429.515625 206.53125 -419.375 198.875 -408.46875 C 187.28125 -392.125 176.707031 -375.085938 167.15625 -357.359375 C 157.601562 -339.628906 148.757812 -321.394531 140.625 -302.65625 C 125.300781 -267.414062 111.316406 -231.445312 98.671875 -194.75 C 86.023438 -158.0625 74.523438 -120.84375 64.171875 -83.09375 C 63.960938 -82.46875 63.75 -81.878906 63.53125 -81.328125 C 62.96875 -79.742188 62.660156 -77.71875 62.609375 -75.25 C 62.554688 -72.78125 64.195312 -71.769531 67.53125 -72.21875 C 219.425781 -93.519531 302.125 -105.023438 315.625 -106.734375 C 319.394531 -107.210938 321.8125 -108.0625 322.875 -109.28125 C 323.9375 -110.5 324.34375 -113.128906 324.09375 -117.171875 C 323.425781 -126.359375 322.617188 -135.578125 321.671875 -144.828125 C 321.503906 -146.898438 321.332031 -149.007812 321.15625 -151.15625 Z M 321.15625 -151.15625 "/></g></g></g><g fill="#5d5fef" fill-opacity="1"><g transform="translate(492.915179, 576.980295)"><g><path d="M 233.234375 -535.34375 C 253.878906 -527.207031 270.929688 -515.9375 284.390625 -501.53125 C 297.847656 -487.132812 307.859375 -470.054688 314.421875 -450.296875 C 315.722656 -445.992188 316.476562 -441.5625 316.6875 -437 C 316.78125 -435.882812 316.867188 -434.851562 316.953125 -433.90625 C 317.242188 -430.300781 315.5625 -427.613281 311.90625 -425.84375 C 310.101562 -424.738281 308.363281 -424.351562 306.6875 -424.6875 C 305.019531 -425.03125 303.851562 -426.039062 303.1875 -427.71875 C 301.96875 -430.976562 300.835938 -434.296875 299.796875 -437.671875 C 299.546875 -438.429688 299.300781 -439.269531 299.0625 -440.1875 C 290.488281 -465.5 275.21875 -486.582031 253.25 -503.4375 C 224.257812 -525.925781 191.179688 -532.945312 154.015625 -524.5 C 121.890625 -517.101562 93.070312 -503.535156 67.5625 -483.796875 C 33 -457.679688 5.164062 -426.382812 -15.9375 -389.90625 C -22.289062 -379.09375 -27.460938 -367.992188 -31.453125 -356.609375 C -45.066406 -318.578125 -42.960938 -281.675781 -25.140625 -245.90625 C -19.421875 -234.1875 -12.660156 -223.25 -4.859375 -213.09375 C 2.929688 -202.9375 11.273438 -193.171875 20.171875 -183.796875 C 40.148438 -162.804688 61.359375 -143.082031 83.796875 -124.625 C 95.847656 -114.75 107.890625 -104.988281 119.921875 -95.34375 C 137.066406 -81.375 154.09375 -67.3125 171 -53.15625 C 192.226562 -35.65625 211.765625 -16.707031 229.609375 3.6875 C 235.335938 10.21875 240.632812 17.039062 245.5 24.15625 C 250.375 31.269531 254.351562 38.882812 257.4375 47 C 266.320312 68.832031 260.675781 86.765625 240.5 100.796875 C 229.90625 108.578125 218.179688 113.648438 205.328125 116.015625 C 147.859375 125.347656 100.253906 109.796875 62.515625 69.359375 C 52.898438 58.742188 46.429688 47.15625 43.109375 34.59375 C 39.785156 22.039062 38.8125 8.96875 40.1875 -4.625 C 42.90625 -35.445312 53.660156 -63.734375 72.453125 -89.484375 C 74.398438 -92.054688 76.21875 -94.578125 77.90625 -97.046875 C 78.507812 -98.222656 79.242188 -99.328125 80.109375 -100.359375 C 77.722656 -103.960938 74.925781 -106.882812 71.71875 -109.125 C 70.707031 -109.976562 69.785156 -110.71875 68.953125 -111.34375 C 45.273438 -131.082031 22.9375 -151.960938 1.9375 -173.984375 C -12.625 -189.117188 -25.300781 -205.570312 -36.09375 -223.34375 C -63.601562 -268.59375 -66.945312 -315.675781 -46.125 -364.59375 C -34.507812 -390.445312 -19.75 -413.988281 -1.84375 -435.21875 C 16.050781 -456.445312 36.722656 -475.765625 60.171875 -493.171875 C 83.117188 -510.273438 108.484375 -523.382812 136.265625 -532.5 C 147.691406 -536.300781 159.382812 -539.0625 171.34375 -540.78125 C 183.300781 -542.507812 195.378906 -542.753906 207.578125 -541.515625 C 216.472656 -540.523438 225.023438 -538.46875 233.234375 -535.34375 Z M 87.03125 -90.03125 C 85.625 -88.445312 84.351562 -86.660156 83.21875 -84.671875 C 75.113281 -71.804688 69.179688 -58.367188 65.421875 -44.359375 C 61.660156 -30.359375 59.523438 -15.945312 59.015625 -1.125 C 58.210938 28.84375 70.007812 53.363281 94.40625 72.4375 C 117.8125 91.070312 145.03125 101.5625 176.0625 103.90625 C 190.28125 105.40625 204.195312 103.867188 217.8125 99.296875 C 238.726562 92.023438 245.910156 78.507812 239.359375 58.75 C 236.085938 49.507812 231.472656 40.773438 225.515625 32.546875 C 216.421875 19.722656 206.179688 7.734375 194.796875 -3.421875 C 180.941406 -17.484375 166.390625 -30.96875 151.140625 -43.875 C 135.898438 -56.789062 120.46875 -69.46875 104.84375 -81.90625 C 101.332031 -84.644531 97.863281 -87.382812 94.4375 -90.125 C 93.59375 -90.84375 92.597656 -91.328125 91.453125 -91.578125 C 90.992188 -91.960938 90.5 -92.21875 89.96875 -92.34375 C 89.5625 -92.144531 89.191406 -91.898438 88.859375 -91.609375 C 88.117188 -91.203125 87.507812 -90.675781 87.03125 -90.03125 Z M 87.03125 -90.03125 "/></g></g></g><g clip-path="url(#id1)"><path fill="#5d5fef" d="M 784.8125 703.710938 C 770.933594 703.710938 759.6875 714.957031 759.6875 728.835938 C 759.6875 742.710938 770.933594 753.960938 784.8125 753.960938 C 798.6875 753.960938 809.9375 742.710938 809.9375 728.835938 C 809.9375 714.957031 798.6875 703.710938 784.8125 703.710938 " fill-opacity="1" fill-rule="nonzero"/></g><g clip-path="url(#id2)"><path fill="#5d5fef" d="M 698.28125 721.929688 C 684.402344 721.929688 673.15625 733.179688 673.15625 747.054688 C 673.15625 760.929688 684.402344 772.179688 698.28125 772.179688 C 712.15625 772.179688 723.40625 760.929688 723.40625 747.054688 C 723.40625 733.179688 712.15625 721.929688 698.28125 721.929688 " fill-opacity="1" fill-rule="nonzero"/></g><g clip-path="url(#id3)"><path fill="#5d5fef" d="M 599.367188 743.484375 C 585.488281 743.484375 574.242188 754.734375 574.242188 768.609375 C 574.242188 782.488281 585.488281 793.734375 599.367188 793.734375 C 613.242188 793.734375 624.492188 782.488281 624.492188 768.609375 C 624.492188 754.734375 613.242188 743.484375 599.367188 743.484375 " fill-opacity="1" fill-rule="nonzero"/></g></svg>