<svg width="150" height="137" viewBox="0 0 150 137" fill="none" xmlns="http://www.w3.org/2000/svg">
<g opacity="0.05">
<ellipse cx="5.80041" cy="5.39945" rx="5.80041" ry="4.43168" fill="#5D5FEF" fill-opacity="0.99"/>
<ellipse cx="5.80041" cy="30.8255" rx="5.80041" ry="4.43149" fill="#5D5FEF" fill-opacity="0.99"/>
<ellipse cx="5.80041" cy="56.2519" rx="5.80041" ry="4.43158" fill="#5D5FEF" fill-opacity="0.99"/>
<ellipse cx="5.80041" cy="81.6778" rx="5.80041" ry="4.43168" fill="#5D5FEF" fill-opacity="0.99"/>
<ellipse cx="5.80041" cy="107.103" rx="5.80041" ry="4.43149" fill="#5D5FEF" fill-opacity="0.99"/>
<ellipse cx="5.80041" cy="132.53" rx="5.80041" ry="4.43158" fill="#5D5FEF" fill-opacity="0.99"/>
<ellipse cx="39.0802" cy="5.39945" rx="5.80041" ry="4.43168" fill="#5D5FEF" fill-opacity="0.99"/>
<ellipse cx="39.0802" cy="30.8255" rx="5.80041" ry="4.43149" fill="#5D5FEF" fill-opacity="0.99"/>
<ellipse cx="39.0802" cy="56.2519" rx="5.80041" ry="4.43158" fill="#5D5FEF" fill-opacity="0.99"/>
<ellipse cx="39.0802" cy="81.6778" rx="5.80041" ry="4.43168" fill="#5D5FEF" fill-opacity="0.99"/>
<ellipse cx="39.0802" cy="107.103" rx="5.80041" ry="4.43149" fill="#5D5FEF" fill-opacity="0.99"/>
<ellipse cx="39.0802" cy="132.53" rx="5.80041" ry="4.43158" fill="#5D5FEF" fill-opacity="0.99"/>
<ellipse cx="72.36" cy="5.39945" rx="5.80041" ry="4.43168" fill="#5D5FEF" fill-opacity="0.99"/>
<ellipse cx="72.36" cy="30.8255" rx="5.80041" ry="4.43149" fill="#5D5FEF" fill-opacity="0.99"/>
<ellipse cx="72.36" cy="56.2519" rx="5.80041" ry="4.43158" fill="#5D5FEF" fill-opacity="0.99"/>
<ellipse cx="72.36" cy="81.6778" rx="5.80041" ry="4.43168" fill="#5D5FEF" fill-opacity="0.99"/>
<ellipse cx="72.36" cy="107.103" rx="5.80041" ry="4.43149" fill="#5D5FEF" fill-opacity="0.99"/>
<ellipse cx="72.36" cy="132.53" rx="5.80041" ry="4.43158" fill="#5D5FEF" fill-opacity="0.99"/>
<ellipse cx="105.64" cy="5.39945" rx="5.80041" ry="4.43168" fill="#5D5FEF" fill-opacity="0.99"/>
<ellipse cx="138.92" cy="5.39945" rx="5.80041" ry="4.43168" fill="#5D5FEF" fill-opacity="0.99"/>
<ellipse cx="105.64" cy="30.8255" rx="5.80041" ry="4.43149" fill="#5D5FEF" fill-opacity="0.99"/>
<ellipse cx="138.92" cy="30.8255" rx="5.80041" ry="4.43149" fill="#5D5FEF" fill-opacity="0.99"/>
<ellipse cx="105.64" cy="56.2519" rx="5.80041" ry="4.43158" fill="#5D5FEF" fill-opacity="0.99"/>
<ellipse cx="138.92" cy="56.2519" rx="5.80041" ry="4.43158" fill="#5D5FEF" fill-opacity="0.99"/>
<ellipse cx="105.64" cy="81.6778" rx="5.80041" ry="4.43168" fill="#5D5FEF" fill-opacity="0.99"/>
<ellipse cx="105.64" cy="107.103" rx="5.80041" ry="4.43149" fill="#5D5FEF" fill-opacity="0.99"/>
<ellipse cx="105.64" cy="132.53" rx="5.80041" ry="4.43158" fill="#5D5FEF" fill-opacity="0.99"/>
<ellipse cx="138.92" cy="81.6778" rx="5.80041" ry="4.43168" fill="#5D5FEF" fill-opacity="0.99"/>
<ellipse cx="138.92" cy="107.103" rx="5.80041" ry="4.43149" fill="#5D5FEF" fill-opacity="0.99"/>
<ellipse cx="138.92" cy="132.53" rx="5.80041" ry="4.43158" fill="#5D5FEF" fill-opacity="0.99"/>
</g>
</svg>
