<svg width="35" height="35" viewBox="0 0 35 35" fill="none" xmlns="http://www.w3.org/2000/svg">
<path d="M35 0H0V35H35V0Z" fill="#1BA8FF"/>
<path d="M20.7738 9.57284V9.56934H21.6865L22.02 9.6362C22.2423 9.67964 22.4442 9.73656 22.6255 9.80698C22.8069 9.87739 22.9824 9.95953 23.1521 10.0534C23.3218 10.1473 23.4756 10.2429 23.6137 10.3404C23.7506 10.4366 23.8735 10.5387 23.9823 10.6467C24.0899 10.7558 24.2579 10.7839 24.486 10.7311C24.7142 10.6783 24.9599 10.605 25.2233 10.5111C25.4865 10.4172 25.7469 10.3116 26.0043 10.1942C26.2618 10.0769 26.4186 10.0024 26.4747 9.9707C26.5297 9.93781 26.559 9.92021 26.5625 9.91789L26.566 9.91259L26.5835 9.90379L26.6011 9.89499L26.6186 9.88619L26.6362 9.87739L26.6397 9.87209L26.645 9.86859L26.6502 9.86503L26.6537 9.85978L26.6713 9.85448L26.6888 9.85098L26.6854 9.87739L26.6801 9.90379L26.6713 9.9302L26.6625 9.9566L26.6537 9.9742L26.645 9.99181L26.6362 10.0182C26.6304 10.0358 26.6245 10.0593 26.6186 10.0886C26.6128 10.118 26.5572 10.2353 26.4519 10.4407C26.3466 10.646 26.2149 10.8544 26.057 11.0656C25.899 11.2769 25.7574 11.4364 25.6322 11.5444C25.5058 11.6536 25.4222 11.7299 25.3812 11.7733C25.3403 11.8179 25.2905 11.859 25.232 11.8965L25.1443 11.9546L25.1267 11.9634L25.1092 11.9722L25.1057 11.9775L25.1004 11.981L25.0951 11.9845L25.0916 11.9898L25.074 11.9986L25.0565 12.0074L25.053 12.0127L25.0477 12.0162L25.0424 12.0197L25.0389 12.025L25.0354 12.0303L25.0302 12.0338L25.0249 12.0373L25.0214 12.0426H25.1092L25.6006 11.937C25.9283 11.8666 26.2413 11.7815 26.5397 11.6817L27.0136 11.5233L27.0662 11.5057L27.0926 11.4969L27.1101 11.4881L27.1277 11.4793L27.1452 11.4705L27.1628 11.4617L27.1979 11.4564L27.233 11.4529V11.4881L27.2242 11.4916L27.2154 11.4969L27.2119 11.5022L27.2066 11.5057L27.2014 11.5092L27.1979 11.5145L27.1944 11.5198L27.1891 11.5233L27.1838 11.5268L27.1803 11.5321L27.1768 11.5374L27.1715 11.5409L27.1628 11.5585L27.154 11.5761L27.1487 11.5796C27.1464 11.5832 27.0721 11.6829 26.9258 11.8789C26.7795 12.0761 26.7006 12.1758 26.6888 12.1782C26.6772 12.1817 26.6608 12.1993 26.6397 12.231C26.6198 12.2638 26.4958 12.3947 26.2676 12.6235C26.0394 12.8523 25.8159 13.056 25.5971 13.2344C25.3772 13.4139 25.266 13.6345 25.2636 13.8963C25.2601 14.1568 25.2467 14.4514 25.2233 14.78C25.1998 15.1085 25.156 15.4635 25.0916 15.8449C25.0273 16.2263 24.9278 16.6577 24.7932 17.1388C24.6587 17.62 24.4948 18.0894 24.3017 18.5471C24.1087 19.0048 23.9068 19.4155 23.6962 19.7793C23.4856 20.1431 23.2925 20.4512 23.117 20.7035C22.9415 20.9558 22.763 21.1935 22.5816 21.4164C22.4003 21.6394 22.171 21.8906 21.8936 22.1699C21.6151 22.448 21.463 22.6006 21.4372 22.6275C21.4104 22.6534 21.2957 22.7496 21.0932 22.9162C20.892 23.0841 20.6755 23.2519 20.4438 23.4197C20.2133 23.5864 20.0015 23.7254 19.8084 23.8369C19.6153 23.9484 19.3825 24.0757 19.1098 24.2189C18.8383 24.3632 18.5446 24.497 18.2287 24.6203C17.9127 24.7435 17.5793 24.8579 17.2282 24.9635C16.8772 25.0691 16.5379 25.1513 16.2102 25.21C15.8826 25.2686 15.511 25.3185 15.0957 25.3596L14.4725 25.4212V25.43H13.3317V25.4212L13.1824 25.4124C13.083 25.4065 13.0011 25.4007 12.9367 25.3948C12.8724 25.3889 12.6295 25.3567 12.2083 25.298C11.787 25.2393 11.4565 25.1806 11.2166 25.1219C10.9767 25.0633 10.6198 24.9518 10.1459 24.7875C9.67199 24.6232 9.26656 24.4571 8.92953 24.2893C8.59373 24.1226 8.38312 24.017 8.29767 23.9725C8.21342 23.929 8.11861 23.875 8.0133 23.8105L7.85534 23.7137L7.85184 23.7084L7.84659 23.7049L7.84128 23.7014L7.83778 23.6961L7.82023 23.6873L7.80268 23.6785L7.79918 23.6732L7.79393 23.6697L7.78863 23.6662L7.78513 23.6609L7.78163 23.6556L7.77638 23.652H7.76758V23.6168L7.78513 23.6204L7.80268 23.6256L7.88169 23.6344C7.93434 23.6403 8.07769 23.6491 8.31173 23.6609C8.54576 23.6726 8.79442 23.6726 9.05769 23.6609C9.32096 23.6491 9.5901 23.6227 9.86506 23.5816C10.1401 23.5406 10.4648 23.4702 10.8392 23.3704C11.2137 23.2707 11.5577 23.1521 11.8713 23.0148C12.1838 22.8763 12.4061 22.7731 12.5383 22.705C12.6693 22.6381 12.8694 22.5137 13.1386 22.3318L13.5423 22.0589L13.5458 22.0537L13.551 22.0501L13.5563 22.0466L13.5598 22.0413L13.5633 22.0361L13.5686 22.0325L13.5739 22.029L13.5774 22.0237L13.5949 22.0185L13.6125 22.0149L13.616 21.9973L13.6212 21.9797L13.6265 21.9762L13.63 21.9709L13.4896 21.9621C13.396 21.9562 13.3053 21.9504 13.2175 21.9445C13.1298 21.9386 12.9923 21.9122 12.8051 21.8653C12.6179 21.8184 12.416 21.7479 12.1995 21.6541C11.9831 21.5602 11.7724 21.4487 11.5677 21.3196C11.3629 21.1905 11.2148 21.0831 11.1236 20.9975C11.0335 20.9129 10.9164 20.7933 10.7725 20.6383C10.6298 20.4823 10.5057 20.3221 10.4004 20.1578C10.2951 19.9935 10.1945 19.804 10.0985 19.5892L9.95281 19.2688L9.94406 19.2424L9.93526 19.216L9.93001 19.1984L9.92651 19.1808L9.95281 19.1843L9.97917 19.1896L10.1722 19.216C10.301 19.2336 10.5028 19.2395 10.7778 19.2336C11.0528 19.2277 11.2429 19.216 11.3482 19.1984C11.4535 19.1808 11.5179 19.1691 11.5413 19.1632L11.5764 19.1544L11.6203 19.1456L11.6642 19.1368L11.6677 19.1315L11.673 19.128L11.6782 19.1244L11.6817 19.1192L11.6466 19.1104L11.6115 19.1016L11.5764 19.0928L11.5413 19.084L11.5062 19.0752C11.4828 19.0693 11.4419 19.0576 11.3833 19.04C11.3249 19.0224 11.1668 18.9578 10.9094 18.8463C10.652 18.7349 10.4472 18.6263 10.2951 18.5207C10.1426 18.4148 9.99718 18.2989 9.85981 18.1739C9.72289 18.0471 9.57255 17.884 9.40872 17.6845C9.24489 17.485 9.09866 17.2532 8.96993 16.9892C8.8412 16.7251 8.74464 16.4728 8.68031 16.2322C8.61617 15.9931 8.57392 15.7485 8.55395 15.5017L8.52234 15.132L8.53989 15.1355L8.55745 15.1408L8.575 15.1496L8.59255 15.1584L8.6101 15.1672L8.62765 15.176L8.89972 15.2992C9.08111 15.3814 9.30634 15.4518 9.57548 15.5105C9.84462 15.5692 10.0055 15.6014 10.0582 15.6073L10.1371 15.6161H10.2951L10.2916 15.6108L10.2863 15.6073L10.281 15.6038L10.2775 15.5985L10.274 15.5932L10.2688 15.5897L10.2635 15.5862L10.26 15.5809L10.2424 15.5721L10.2249 15.5633L10.2214 15.558L10.2161 15.5545L10.2108 15.551L10.2073 15.5457L10.1898 15.5369L10.1722 15.5281L10.1687 15.5228C10.1652 15.5204 10.1149 15.4829 10.0178 15.4101C9.92183 15.3362 9.8212 15.2406 9.71589 15.1232C9.61059 15.0059 9.50528 14.8826 9.39997 14.7536C9.29445 14.6242 9.20047 14.4857 9.11909 14.3398C9.0372 14.1931 8.95063 14.0066 8.85932 13.78C8.76925 13.5548 8.70079 13.3277 8.65395 13.0988C8.60717 12.8699 8.58086 12.644 8.575 12.4211C8.56913 12.1981 8.575 12.0074 8.59255 11.849C8.6101 11.6905 8.6452 11.5116 8.69786 11.3121C8.75051 11.1126 8.82659 10.9013 8.92603 10.6783L9.07524 10.3439L9.08399 10.3175L9.09279 10.2911L9.09804 10.2876L9.10154 10.2823L9.10504 10.277L9.11034 10.2735L9.11559 10.277L9.11909 10.2823L9.12259 10.2876L9.12789 10.2911L9.13314 10.2946L9.13664 10.2999L9.1402 10.3052L9.14545 10.3087L9.1542 10.3263L9.163 10.3439L9.16825 10.3474L9.17175 10.3527L9.40872 10.6167C9.56668 10.7927 9.75393 10.9894 9.97037 11.2065C10.1869 11.4236 10.3068 11.5362 10.3302 11.5444C10.3536 11.5538 10.3829 11.5808 10.418 11.6254C10.4531 11.6688 10.5701 11.7727 10.769 11.937C10.968 12.1013 11.2283 12.292 11.5501 12.5091C11.8719 12.7262 12.2288 12.9404 12.6208 13.1516C13.0128 13.3629 13.434 13.5536 13.8845 13.7237C14.335 13.8939 14.651 14.0054 14.8323 14.0582C15.0137 14.111 15.3238 14.1785 15.7626 14.2606C16.2014 14.3428 16.532 14.3956 16.7543 14.419C16.9766 14.4425 17.1288 14.4561 17.2107 14.4596L17.3335 14.4631L17.33 14.4367L17.3247 14.4102L17.2896 14.1902C17.2663 14.0435 17.2545 13.8382 17.2545 13.5741C17.2545 13.3101 17.275 13.0666 17.316 12.8435C17.357 12.6206 17.4184 12.3947 17.5003 12.1658C17.5822 11.937 17.6623 11.7533 17.7407 11.6148C17.8204 11.4776 17.9245 11.3209 18.0532 11.1449C18.1819 10.9688 18.3486 10.7869 18.5534 10.5991C18.7582 10.4113 18.9922 10.2441 19.2555 10.0974C19.5188 9.95073 19.7616 9.83925 19.9839 9.76297C20.2063 9.68669 20.3935 9.63681 20.5456 9.61334C20.6977 9.58987 20.7738 9.57639 20.7738 9.57284Z" fill="white"/>
</svg>
